# xmcd
#
# Track frame offsets:
#	150
#	13959
#	26920
#	39109
#	53614
#	66888
#	80118
#	92235
#	107048
#	117711
#	128233
#	139254
#	152449
#	166710
#	177342
#	190969
#	204510
#	217610
#	230875
#	243252
#
# Disc length: 3439 seconds
#
# Revision: 0
# Processed by: cddbd v1.5.2PL0 Copyright (c) Steve Scherf et al.
# Submitted via: EasyCDDAExtractor 15.3.0.1
#
DISCID=170d6d14
DTITLE=T-Bone Walker - Legends
DYEAR=1900
DGENRE=Blues
TTITLE0=They Call It Stormy Monday
TTITLE1=Blue Mood
TTITLE2=Railroad Station Blues
TTITLE3=Born To Be No Good
TTITLE4=I Got The Blues
TTITLE5=You're My Best Poker Hand
TTITLE6=Alimony Blues
TTITLE7=T-Bone Blues
TTITLE8=News For You Baby
TTITLE9=The Sun Went Down
TTITLE10=Welcome Blues
TTITLE11=You Don't Love Me
TTITLE12=First Love Blues
TTITLE13=Travellin' Blues
TTITLE14=Misfortune Blues
TTITLE15=T-Bone Shuffle
TTITLE16=I Wish You Were Mine
TTITLE17=Vacation Blues
TTITLE18=T-Bone Jumps Again
TTITLE19=I Got The Blues Again
EXTD=
EXTT0=
EXTT1=
EXTT2=
EXTT3=
EXTT4=
EXTT5=
EXTT6=
EXTT7=
EXTT8=
EXTT9=
EXTT10=
EXTT11=
EXTT12=
EXTT13=
EXTT14=
EXTT15=
EXTT16=
EXTT17=
EXTT18=
EXTT19=
PLAYORDER=
